<mxfile host="65bd71144e">
    <diagram id="IRDZw3fAhUUEOGb23K9v" name="Page-1">
        <mxGraphModel dx="3101" dy="1081" grid="1" gridSize="10" guides="1" tooltips="1" connect="1" arrows="1" fold="1" page="0" pageScale="1" pageWidth="850" pageHeight="1100" math="0" shadow="0">
            <root>
                <mxCell id="0"/>
                <mxCell id="1" parent="0"/>
                <mxCell id="51" value="Uint" style="swimlane;fontStyle=0;childLayout=stackLayout;horizontal=1;startSize=26;fillColor=none;horizontalStack=0;resizeParent=1;resizeParentMax=0;resizeLast=0;collapsible=1;marginBottom=0;strokeColor=default;" vertex="1" parent="1">
                    <mxGeometry x="-60" y="30" width="140" height="242" as="geometry"/>
                </mxCell>
                <mxCell id="52" value="# int stamina" style="text;strokeColor=none;fillColor=none;align=left;verticalAlign=top;spacingLeft=4;spacingRight=4;overflow=hidden;rotatable=0;points=[[0,0.5],[1,0.5]];portConstraint=eastwest;" vertex="1" parent="51">
                    <mxGeometry y="26" width="140" height="26" as="geometry"/>
                </mxCell>
                <mxCell id="53" value="# int speed" style="text;strokeColor=none;fillColor=none;align=left;verticalAlign=top;spacingLeft=4;spacingRight=4;overflow=hidden;rotatable=0;points=[[0,0.5],[1,0.5]];portConstraint=eastwest;" vertex="1" parent="51">
                    <mxGeometry y="52" width="140" height="26" as="geometry"/>
                </mxCell>
                <mxCell id="54" value="# int cost" style="text;strokeColor=none;fillColor=none;align=left;verticalAlign=top;spacingLeft=4;spacingRight=4;overflow=hidden;rotatable=0;points=[[0,0.5],[1,0.5]];portConstraint=eastwest;" vertex="1" parent="51">
                    <mxGeometry y="78" width="140" height="26" as="geometry"/>
                </mxCell>
                <mxCell id="59" value="# int attack_range  " style="text;strokeColor=none;fillColor=none;align=left;verticalAlign=top;spacingLeft=4;spacingRight=4;overflow=hidden;rotatable=0;points=[[0,0.5],[1,0.5]];portConstraint=eastwest;" vertex="1" parent="51">
                    <mxGeometry y="104" width="140" height="26" as="geometry"/>
                </mxCell>
                <mxCell id="58" value="# int  building_time" style="text;strokeColor=none;fillColor=none;align=left;verticalAlign=top;spacingLeft=4;spacingRight=4;overflow=hidden;rotatable=0;points=[[0,0.5],[1,0.5]];portConstraint=eastwest;" vertex="1" parent="51">
                    <mxGeometry y="130" width="140" height="26" as="geometry"/>
                </mxCell>
                <mxCell id="157" value="" style="line;strokeWidth=1;fillColor=none;align=left;verticalAlign=middle;spacingTop=-1;spacingLeft=3;spacingRight=3;rotatable=0;labelPosition=right;points=[];portConstraint=eastwest;strokeColor=inherit;" vertex="1" parent="51">
                    <mxGeometry y="156" width="140" height="8" as="geometry"/>
                </mxCell>
                <mxCell id="57" value="# virtual void  move()" style="text;strokeColor=none;fillColor=none;align=left;verticalAlign=top;spacingLeft=4;spacingRight=4;overflow=hidden;rotatable=0;points=[[0,0.5],[1,0.5]];portConstraint=eastwest;" vertex="1" parent="51">
                    <mxGeometry y="164" width="140" height="26" as="geometry"/>
                </mxCell>
                <mxCell id="56" value="# virual void attack()" style="text;strokeColor=none;fillColor=none;align=left;verticalAlign=top;spacingLeft=4;spacingRight=4;overflow=hidden;rotatable=0;points=[[0,0.5],[1,0.5]];portConstraint=eastwest;" vertex="1" parent="51">
                    <mxGeometry y="190" width="140" height="26" as="geometry"/>
                </mxCell>
                <mxCell id="55" value="# virtual voif build()" style="text;strokeColor=none;fillColor=none;align=left;verticalAlign=top;spacingLeft=4;spacingRight=4;overflow=hidden;rotatable=0;points=[[0,0.5],[1,0.5]];portConstraint=eastwest;" vertex="1" parent="51">
                    <mxGeometry y="216" width="140" height="26" as="geometry"/>
                </mxCell>
                <mxCell id="60" value="Knight" style="swimlane;fontStyle=1;align=center;verticalAlign=top;childLayout=stackLayout;horizontal=1;startSize=26;horizontalStack=0;resizeParent=1;resizeParentMax=0;resizeLast=0;collapsible=1;marginBottom=0;strokeColor=default;" vertex="1" parent="1">
                    <mxGeometry x="-650" y="400" width="160" height="34" as="geometry"/>
                </mxCell>
                <mxCell id="62" value="" style="line;strokeWidth=1;fillColor=none;align=left;verticalAlign=middle;spacingTop=-1;spacingLeft=3;spacingRight=3;rotatable=0;labelPosition=right;points=[];portConstraint=eastwest;strokeColor=inherit;" vertex="1" parent="60">
                    <mxGeometry y="26" width="160" height="8" as="geometry"/>
                </mxCell>
                <mxCell id="64" value="Swordsman" style="swimlane;fontStyle=1;align=center;verticalAlign=top;childLayout=stackLayout;horizontal=1;startSize=26;horizontalStack=0;resizeParent=1;resizeParentMax=0;resizeLast=0;collapsible=1;marginBottom=0;strokeColor=default;" vertex="1" parent="1">
                    <mxGeometry x="-480" y="400" width="160" height="34" as="geometry"/>
                </mxCell>
                <mxCell id="66" value="" style="line;strokeWidth=1;fillColor=none;align=left;verticalAlign=middle;spacingTop=-1;spacingLeft=3;spacingRight=3;rotatable=0;labelPosition=right;points=[];portConstraint=eastwest;strokeColor=inherit;" vertex="1" parent="64">
                    <mxGeometry y="26" width="160" height="8" as="geometry"/>
                </mxCell>
                <mxCell id="68" value="Ram" style="swimlane;fontStyle=1;align=center;verticalAlign=top;childLayout=stackLayout;horizontal=1;startSize=26;horizontalStack=0;resizeParent=1;resizeParentMax=0;resizeLast=0;collapsible=1;marginBottom=0;strokeColor=default;" vertex="1" parent="1">
                    <mxGeometry x="40" y="400" width="160" height="34" as="geometry"/>
                </mxCell>
                <mxCell id="70" value="" style="line;strokeWidth=1;fillColor=none;align=left;verticalAlign=middle;spacingTop=-1;spacingLeft=3;spacingRight=3;rotatable=0;labelPosition=right;points=[];portConstraint=eastwest;strokeColor=inherit;" vertex="1" parent="68">
                    <mxGeometry y="26" width="160" height="8" as="geometry"/>
                </mxCell>
                <mxCell id="72" value="Pikeman" style="swimlane;fontStyle=1;align=center;verticalAlign=top;childLayout=stackLayout;horizontal=1;startSize=26;horizontalStack=0;resizeParent=1;resizeParentMax=0;resizeLast=0;collapsible=1;marginBottom=0;strokeColor=default;" vertex="1" parent="1">
                    <mxGeometry x="-130" y="400" width="160" height="34" as="geometry"/>
                </mxCell>
                <mxCell id="74" value="" style="line;strokeWidth=1;fillColor=none;align=left;verticalAlign=middle;spacingTop=-1;spacingLeft=3;spacingRight=3;rotatable=0;labelPosition=right;points=[];portConstraint=eastwest;strokeColor=inherit;" vertex="1" parent="72">
                    <mxGeometry y="26" width="160" height="8" as="geometry"/>
                </mxCell>
                <mxCell id="76" value="Archer" style="swimlane;fontStyle=1;align=center;verticalAlign=top;childLayout=stackLayout;horizontal=1;startSize=26;horizontalStack=0;resizeParent=1;resizeParentMax=0;resizeLast=0;collapsible=1;marginBottom=0;strokeColor=default;" vertex="1" parent="1">
                    <mxGeometry x="-305" y="400" width="160" height="34" as="geometry"/>
                </mxCell>
                <mxCell id="78" value="" style="line;strokeWidth=1;fillColor=none;align=left;verticalAlign=middle;spacingTop=-1;spacingLeft=3;spacingRight=3;rotatable=0;labelPosition=right;points=[];portConstraint=eastwest;strokeColor=inherit;" vertex="1" parent="76">
                    <mxGeometry y="26" width="160" height="8" as="geometry"/>
                </mxCell>
                <mxCell id="80" value="Catapult" style="swimlane;fontStyle=1;align=center;verticalAlign=top;childLayout=stackLayout;horizontal=1;startSize=26;horizontalStack=0;resizeParent=1;resizeParentMax=0;resizeLast=0;collapsible=1;marginBottom=0;strokeColor=default;" vertex="1" parent="1">
                    <mxGeometry x="210" y="400" width="160" height="34" as="geometry"/>
                </mxCell>
                <mxCell id="82" value="" style="line;strokeWidth=1;fillColor=none;align=left;verticalAlign=middle;spacingTop=-1;spacingLeft=3;spacingRight=3;rotatable=0;labelPosition=right;points=[];portConstraint=eastwest;strokeColor=inherit;" vertex="1" parent="80">
                    <mxGeometry y="26" width="160" height="8" as="geometry"/>
                </mxCell>
                <mxCell id="84" value="Worker" style="swimlane;fontStyle=1;align=center;verticalAlign=top;childLayout=stackLayout;horizontal=1;startSize=26;horizontalStack=0;resizeParent=1;resizeParentMax=0;resizeLast=0;collapsible=1;marginBottom=0;strokeColor=default;" vertex="1" parent="1">
                    <mxGeometry x="380" y="400" width="160" height="34" as="geometry"/>
                </mxCell>
                <mxCell id="86" value="" style="line;strokeWidth=1;fillColor=none;align=left;verticalAlign=middle;spacingTop=-1;spacingLeft=3;spacingRight=3;rotatable=0;labelPosition=right;points=[];portConstraint=eastwest;strokeColor=inherit;" vertex="1" parent="84">
                    <mxGeometry y="26" width="160" height="8" as="geometry"/>
                </mxCell>
                <mxCell id="88" value="Base" style="swimlane;fontStyle=1;align=center;verticalAlign=top;childLayout=stackLayout;horizontal=1;startSize=26;horizontalStack=0;resizeParent=1;resizeParentMax=0;resizeLast=0;collapsible=1;marginBottom=0;strokeColor=default;" vertex="1" parent="1">
                    <mxGeometry x="550" y="400" width="160" height="34" as="geometry"/>
                </mxCell>
                <mxCell id="90" value="" style="line;strokeWidth=1;fillColor=none;align=left;verticalAlign=middle;spacingTop=-1;spacingLeft=3;spacingRight=3;rotatable=0;labelPosition=right;points=[];portConstraint=eastwest;strokeColor=inherit;" vertex="1" parent="88">
                    <mxGeometry y="26" width="160" height="8" as="geometry"/>
                </mxCell>
                <mxCell id="112" value="" style="group" vertex="1" connectable="0" parent="1">
                    <mxGeometry x="-570" y="340" width="1200" height="30" as="geometry"/>
                </mxCell>
                <mxCell id="97" value="" style="endArrow=block;dashed=1;endFill=0;endSize=12;html=1;entryX=0.5;entryY=1.115;entryDx=0;entryDy=0;entryPerimeter=0;" edge="1" parent="112" target="55">
                    <mxGeometry width="160" relative="1" as="geometry">
                        <mxPoint x="580" as="sourcePoint"/>
                        <mxPoint x="680" y="-10" as="targetPoint"/>
                    </mxGeometry>
                </mxCell>
                <mxCell id="103" value="" style="edgeStyle=none;orthogonalLoop=1;jettySize=auto;html=1;endArrow=none;endFill=0;elbow=vertical;dashed=1;exitX=0.5;exitY=0;exitDx=0;exitDy=0;" edge="1" parent="112" source="60">
                    <mxGeometry width="80" relative="1" as="geometry">
                        <mxPoint x="30" y="-50" as="sourcePoint"/>
                        <mxPoint as="targetPoint"/>
                        <Array as="points"/>
                    </mxGeometry>
                </mxCell>
                <mxCell id="104" value="" style="edgeStyle=none;orthogonalLoop=1;jettySize=auto;html=1;endArrow=none;endFill=0;elbow=vertical;dashed=1;exitX=0.5;exitY=0;exitDx=0;exitDy=0;" edge="1" parent="112" source="76">
                    <mxGeometry width="80" relative="1" as="geometry">
                        <mxPoint x="350" y="50" as="sourcePoint"/>
                        <mxPoint x="345" as="targetPoint"/>
                        <Array as="points"/>
                    </mxGeometry>
                </mxCell>
                <mxCell id="105" value="" style="edgeStyle=none;orthogonalLoop=1;jettySize=auto;html=1;endArrow=none;endFill=0;elbow=vertical;dashed=1;exitX=0.5;exitY=0;exitDx=0;exitDy=0;" edge="1" parent="112" source="72">
                    <mxGeometry width="80" relative="1" as="geometry">
                        <mxPoint x="519.5" y="50" as="sourcePoint"/>
                        <mxPoint x="520" as="targetPoint"/>
                        <Array as="points"/>
                    </mxGeometry>
                </mxCell>
                <mxCell id="106" value="" style="edgeStyle=none;orthogonalLoop=1;jettySize=auto;html=1;endArrow=none;endFill=0;elbow=vertical;dashed=1;entryX=0.5;entryY=0;entryDx=0;entryDy=0;" edge="1" parent="112" target="68">
                    <mxGeometry width="80" relative="1" as="geometry">
                        <mxPoint x="690" as="sourcePoint"/>
                        <mxPoint x="110" y="-50" as="targetPoint"/>
                        <Array as="points"/>
                    </mxGeometry>
                </mxCell>
                <mxCell id="107" value="" style="edgeStyle=none;orthogonalLoop=1;jettySize=auto;html=1;endArrow=none;endFill=0;elbow=vertical;dashed=1;entryX=0.5;entryY=0;entryDx=0;entryDy=0;" edge="1" parent="112" target="80">
                    <mxGeometry width="80" relative="1" as="geometry">
                        <mxPoint x="860" as="sourcePoint"/>
                        <mxPoint x="40" y="30" as="targetPoint"/>
                        <Array as="points"/>
                    </mxGeometry>
                </mxCell>
                <mxCell id="108" value="" style="edgeStyle=none;orthogonalLoop=1;jettySize=auto;html=1;endArrow=none;endFill=0;elbow=vertical;dashed=1;entryX=0.5;entryY=0;entryDx=0;entryDy=0;" edge="1" parent="112" target="84">
                    <mxGeometry width="80" relative="1" as="geometry">
                        <mxPoint x="1030" as="sourcePoint"/>
                        <mxPoint x="50" y="40" as="targetPoint"/>
                        <Array as="points"/>
                    </mxGeometry>
                </mxCell>
                <mxCell id="109" value="" style="edgeStyle=none;orthogonalLoop=1;jettySize=auto;html=1;endArrow=none;endFill=0;elbow=vertical;dashed=1;entryX=0.5;entryY=0;entryDx=0;entryDy=0;" edge="1" parent="112" target="88">
                    <mxGeometry width="80" relative="1" as="geometry">
                        <mxPoint x="1200" as="sourcePoint"/>
                        <mxPoint x="60" y="50" as="targetPoint"/>
                        <Array as="points">
                            <mxPoint x="1200" y="30"/>
                        </Array>
                    </mxGeometry>
                </mxCell>
                <mxCell id="110" value="" style="edgeStyle=none;orthogonalLoop=1;jettySize=auto;html=1;endArrow=none;endFill=0;elbow=vertical;dashed=1;" edge="1" parent="112">
                    <mxGeometry width="80" relative="1" as="geometry">
                        <mxPoint x="1200" as="sourcePoint"/>
                        <mxPoint as="targetPoint"/>
                        <Array as="points"/>
                    </mxGeometry>
                </mxCell>
                <mxCell id="111" value="" style="edgeStyle=none;orthogonalLoop=1;jettySize=auto;html=1;endArrow=none;endFill=0;elbow=vertical;dashed=1;exitX=0.5;exitY=0;exitDx=0;exitDy=0;" edge="1" parent="112" source="64">
                    <mxGeometry width="80" relative="1" as="geometry">
                        <mxPoint x="230" y="-10" as="sourcePoint"/>
                        <mxPoint x="170" as="targetPoint"/>
                        <Array as="points"/>
                    </mxGeometry>
                </mxCell>
                <mxCell id="113" value="Map" style="swimlane;fontStyle=0;childLayout=stackLayout;horizontal=1;startSize=26;fillColor=none;horizontalStack=0;resizeParent=1;resizeParentMax=0;resizeLast=0;collapsible=1;marginBottom=0;strokeColor=default;" vertex="1" parent="1">
                    <mxGeometry x="-780" y="890" width="160" height="52" as="geometry"/>
                </mxCell>
                <mxCell id="115" value="coś z tym mądrego zrobić" style="text;strokeColor=none;fillColor=none;align=left;verticalAlign=top;spacingLeft=4;spacingRight=4;overflow=hidden;rotatable=0;points=[[0,0.5],[1,0.5]];portConstraint=eastwest;" vertex="1" parent="113">
                    <mxGeometry y="26" width="160" height="26" as="geometry"/>
                </mxCell>
                <mxCell id="121" value="Status" style="swimlane;fontStyle=0;childLayout=stackLayout;horizontal=1;startSize=26;fillColor=none;horizontalStack=0;resizeParent=1;resizeParentMax=0;resizeLast=0;collapsible=1;marginBottom=0;strokeColor=default;" vertex="1" parent="1">
                    <mxGeometry x="-470" y="890" width="160" height="52" as="geometry"/>
                </mxCell>
                <mxCell id="122" value="coś z tym mądrego zrobić" style="text;strokeColor=none;fillColor=none;align=left;verticalAlign=top;spacingLeft=4;spacingRight=4;overflow=hidden;rotatable=0;points=[[0,0.5],[1,0.5]];portConstraint=eastwest;" vertex="1" parent="121">
                    <mxGeometry y="26" width="160" height="26" as="geometry"/>
                </mxCell>
                <mxCell id="125" value="Commands" style="swimlane;fontStyle=0;childLayout=stackLayout;horizontal=1;startSize=26;fillColor=none;horizontalStack=0;resizeParent=1;resizeParentMax=0;resizeLast=0;collapsible=1;marginBottom=0;strokeColor=default;" vertex="1" parent="1">
                    <mxGeometry x="-170" y="824" width="140" height="104" as="geometry"/>
                </mxCell>
                <mxCell id="126" value="- std::ostream file" style="text;strokeColor=none;fillColor=none;align=left;verticalAlign=top;spacingLeft=4;spacingRight=4;overflow=hidden;rotatable=0;points=[[0,0.5],[1,0.5]];portConstraint=eastwest;" vertex="1" parent="125">
                    <mxGeometry y="26" width="140" height="26" as="geometry"/>
                </mxCell>
                <mxCell id="127" value="+ field: type" style="text;strokeColor=none;fillColor=none;align=left;verticalAlign=top;spacingLeft=4;spacingRight=4;overflow=hidden;rotatable=0;points=[[0,0.5],[1,0.5]];portConstraint=eastwest;" vertex="1" parent="125">
                    <mxGeometry y="52" width="140" height="26" as="geometry"/>
                </mxCell>
                <mxCell id="128" value="+ field: type" style="text;strokeColor=none;fillColor=none;align=left;verticalAlign=top;spacingLeft=4;spacingRight=4;overflow=hidden;rotatable=0;points=[[0,0.5],[1,0.5]];portConstraint=eastwest;" vertex="1" parent="125">
                    <mxGeometry y="78" width="140" height="26" as="geometry"/>
                </mxCell>
                <mxCell id="129" value="File_parser" style="swimlane;fontStyle=0;childLayout=stackLayout;horizontal=1;startSize=26;fillColor=none;horizontalStack=0;resizeParent=1;resizeParentMax=0;resizeLast=0;collapsible=1;marginBottom=0;strokeColor=default;" vertex="1" parent="1">
                    <mxGeometry x="-660" y="650" width="235" height="164" as="geometry"/>
                </mxCell>
                <mxCell id="131" value="# std:: ifstream file" style="text;strokeColor=none;fillColor=none;align=left;verticalAlign=top;spacingLeft=4;spacingRight=4;overflow=hidden;rotatable=0;points=[[0,0.5],[1,0.5]];portConstraint=eastwest;" vertex="1" parent="129">
                    <mxGeometry y="26" width="235" height="26" as="geometry"/>
                </mxCell>
                <mxCell id="132" value="# std::string file_content" style="text;strokeColor=none;fillColor=none;align=left;verticalAlign=top;spacingLeft=4;spacingRight=4;overflow=hidden;rotatable=0;points=[[0,0.5],[1,0.5]];portConstraint=eastwest;" vertex="1" parent="129">
                    <mxGeometry y="52" width="235" height="26" as="geometry"/>
                </mxCell>
                <mxCell id="156" value="# std::vector&lt;std::string&gt;  parsed_contetnt" style="text;strokeColor=none;fillColor=none;align=left;verticalAlign=top;spacingLeft=4;spacingRight=4;overflow=hidden;rotatable=0;points=[[0,0.5],[1,0.5]];portConstraint=eastwest;" vertex="1" parent="129">
                    <mxGeometry y="78" width="235" height="26" as="geometry"/>
                </mxCell>
                <mxCell id="158" value="" style="line;strokeWidth=1;fillColor=none;align=left;verticalAlign=middle;spacingTop=-1;spacingLeft=3;spacingRight=3;rotatable=0;labelPosition=right;points=[];portConstraint=eastwest;strokeColor=inherit;" vertex="1" parent="129">
                    <mxGeometry y="104" width="235" height="8" as="geometry"/>
                </mxCell>
                <mxCell id="146" value="# virtual void pase_file()" style="text;strokeColor=none;fillColor=none;align=left;verticalAlign=top;spacingLeft=4;spacingRight=4;overflow=hidden;rotatable=0;points=[[0,0.5],[1,0.5]];portConstraint=eastwest;" vertex="1" parent="129">
                    <mxGeometry y="112" width="235" height="26" as="geometry"/>
                </mxCell>
                <mxCell id="140" style="text;strokeColor=none;fillColor=none;align=left;verticalAlign=top;spacingLeft=4;spacingRight=4;overflow=hidden;rotatable=0;points=[[0,0.5],[1,0.5]];portConstraint=eastwest;" vertex="1" parent="129">
                    <mxGeometry y="138" width="235" height="26" as="geometry"/>
                </mxCell>
                <mxCell id="145" value="" style="group" vertex="1" connectable="0" parent="1">
                    <mxGeometry x="-714" y="850" width="324" as="geometry"/>
                </mxCell>
                <mxCell id="135" value="" style="endArrow=block;dashed=1;endFill=0;endSize=12;html=1;elbow=vertical;" edge="1" parent="145" target="129">
                    <mxGeometry width="160" relative="1" as="geometry">
                        <mxPoint x="174" as="sourcePoint"/>
                        <mxPoint x="174" y="-50" as="targetPoint"/>
                    </mxGeometry>
                </mxCell>
                <mxCell id="137" value="" style="edgeStyle=none;orthogonalLoop=1;jettySize=auto;html=1;dashed=1;endArrow=none;endFill=0;elbow=vertical;exitX=0.403;exitY=-0.025;exitDx=0;exitDy=0;exitPerimeter=0;" edge="1" parent="145" source="113">
                    <mxGeometry width="80" relative="1" as="geometry">
                        <mxPoint x="134" y="90" as="sourcePoint"/>
                        <mxPoint x="174" as="targetPoint"/>
                        <Array as="points">
                            <mxPoint/>
                        </Array>
                    </mxGeometry>
                </mxCell>
                <mxCell id="138" value="" style="edgeStyle=none;orthogonalLoop=1;jettySize=auto;html=1;dashed=1;endArrow=none;endFill=0;elbow=vertical;entryX=0.5;entryY=0;entryDx=0;entryDy=0;" edge="1" parent="145" target="121">
                    <mxGeometry width="80" relative="1" as="geometry">
                        <mxPoint x="174" as="sourcePoint"/>
                        <mxPoint x="444" as="targetPoint"/>
                        <Array as="points">
                            <mxPoint x="324"/>
                        </Array>
                    </mxGeometry>
                </mxCell>
                <mxCell id="159" value="Validator" style="swimlane;fontStyle=0;childLayout=stackLayout;horizontal=1;startSize=26;fillColor=none;horizontalStack=0;resizeParent=1;resizeParentMax=0;resizeLast=0;collapsible=1;marginBottom=0;strokeColor=default;" vertex="1" parent="1">
                    <mxGeometry x="-170" y="650" width="140" height="134" as="geometry"/>
                </mxCell>
                <mxCell id="166" value="może wsadzić ro po prostu do Commands?" style="text;html=1;strokeColor=#B09500;fillColor=#e3c800;align=center;verticalAlign=middle;whiteSpace=wrap;rounded=0;fontColor=#000000;" vertex="1" parent="159">
                    <mxGeometry y="26" width="140" height="30" as="geometry"/>
                </mxCell>
                <mxCell id="160" value="+ field: type" style="text;strokeColor=none;fillColor=none;align=left;verticalAlign=top;spacingLeft=4;spacingRight=4;overflow=hidden;rotatable=0;points=[[0,0.5],[1,0.5]];portConstraint=eastwest;" vertex="1" parent="159">
                    <mxGeometry y="56" width="140" height="26" as="geometry"/>
                </mxCell>
                <mxCell id="161" value="+ field: type" style="text;strokeColor=none;fillColor=none;align=left;verticalAlign=top;spacingLeft=4;spacingRight=4;overflow=hidden;rotatable=0;points=[[0,0.5],[1,0.5]];portConstraint=eastwest;" vertex="1" parent="159">
                    <mxGeometry y="82" width="140" height="26" as="geometry"/>
                </mxCell>
                <mxCell id="162" value="+ field: type" style="text;strokeColor=none;fillColor=none;align=left;verticalAlign=top;spacingLeft=4;spacingRight=4;overflow=hidden;rotatable=0;points=[[0,0.5],[1,0.5]];portConstraint=eastwest;" vertex="1" parent="159">
                    <mxGeometry y="108" width="140" height="26" as="geometry"/>
                </mxCell>
                <mxCell id="168" value="    Commander " style="swimlane;fontStyle=0;childLayout=stackLayout;horizontal=1;startSize=26;fillColor=none;horizontalStack=0;resizeParent=1;resizeParentMax=0;resizeLast=0;collapsible=1;marginBottom=0;strokeColor=default;" vertex="1" parent="1">
                    <mxGeometry x="180" y="722" width="140" height="86" as="geometry"/>
                </mxCell>
                <mxCell id="177" value="zrobić reascher o takich algorytmach&amp;nbsp;" style="rounded=1;whiteSpace=wrap;html=1;strokeColor=#B09500;fillColor=#e3c800;fontColor=#000000;" vertex="1" parent="168">
                    <mxGeometry y="26" width="140" height="60" as="geometry"/>
                </mxCell>
                <mxCell id="176" style="edgeStyle=none;html=1;entryX=1;entryY=0.5;entryDx=0;entryDy=0;dashed=1;endArrow=none;endFill=0;elbow=vertical;" edge="1" parent="1" source="173" target="168">
                    <mxGeometry relative="1" as="geometry"/>
                </mxCell>
                <mxCell id="173" value="&lt;span style=&quot;color: rgb(255, 255, 255);&quot;&gt;Klasa, w której bedą pracować algorytmy podejmujące decyzje&amp;nbsp;&lt;/span&gt;" style="rounded=1;whiteSpace=wrap;html=1;strokeColor=#006EAF;fillColor=#1ba1e2;fontColor=#ffffff;" vertex="1" parent="1">
                    <mxGeometry x="430" y="690" width="120" height="60" as="geometry"/>
                </mxCell>
                <mxCell id="178" value="&lt;h1&gt;Mapa&lt;/h1&gt;&lt;div&gt;Jak bardo rozwinąć apstakcje?&amp;nbsp;&lt;/div&gt;&lt;div&gt;&lt;ul&gt;&lt;li&gt;pracować na danych tekstowych?&lt;/li&gt;&lt;li&gt;tworzyć tablice 2na2 i na niej jakoś umieszczać jednostki ?&lt;/li&gt;&lt;/ul&gt;&lt;/div&gt;" style="text;html=1;strokeColor=#B09500;fillColor=#e3c800;spacing=5;spacingTop=-20;whiteSpace=wrap;overflow=hidden;rounded=0;fontColor=#000000;" vertex="1" parent="1">
                    <mxGeometry x="-1050" y="850" width="220" height="190" as="geometry"/>
                </mxCell>
                <mxCell id="180" style="edgeStyle=none;html=1;exitX=0;exitY=0.5;exitDx=0;exitDy=0;entryX=1;entryY=0.5;entryDx=0;entryDy=0;dashed=1;endArrow=none;endFill=0;elbow=vertical;" edge="1" parent="1" source="179" target="177">
                    <mxGeometry relative="1" as="geometry"/>
                </mxCell>
                <mxCell id="179" value="Tworzyć osobne listy (mapy??) jednostek naszych i enemy?&amp;nbsp;&lt;br&gt;" style="rounded=1;whiteSpace=wrap;html=1;strokeColor=#006EAF;fillColor=#1ba1e2;fontColor=#ffffff;" vertex="1" parent="1">
                    <mxGeometry x="440" y="808" width="120" height="60" as="geometry"/>
                </mxCell>
            </root>
        </mxGraphModel>
    </diagram>
</mxfile>